# xmcd
#
# Track frame offsets: 
#        150
#        11650
#        21472
#        31525
#        41200
#        53052
#        64522
#        77642
#        88372
#        100545
#        115730
#        128452
#
# Disc length: 1855 seconds
#
# Revision: 0
# Processed by: cddbd v1.5.2PL0 Copyright (c) Steve Scherf et al.
# Submitted via: ExactAudioCopy v1.0b3
#
DISCID=8b073d0c
DTITLE=Slim Harpo - Baby Scratch My Back (UICY-77500 - 2015) 
DYEAR=1966
DGENRE=Blues
TTITLE0=Shake Your Hips
TTITLE1=Midnight Blues
TTITLE2=Harpo's Blues
TTITLE3=Buzzin
TTITLE4=My Little Queen Bee
TTITLE5=I Love The Life (I'm Livin')
TTITLE6=Baby, Scratch My Back
TTITLE7=I'm Gonna Miss You (Like The Devil)
TTITLE8=Rainin' In My Heart
TTITLE9=Wonderin' Blues
TTITLE10=We're Two Of A Kind
TTITLE11=I Need Money
EXTD=
EXTT0=
EXTT1=
EXTT2=
EXTT3=
EXTT4=
EXTT5=
EXTT6=
EXTT7=
EXTT8=
EXTT9=
EXTT10=
EXTT11=
PLAYORDER=
